<svg 
 xmlns="http://www.w3.org/2000/svg"
 xmlns:xlink="http://www.w3.org/1999/xlink"
 width="100%" height="100%" viewBox='222 218 0 0'>
 <defs>
 <mask id='p-logo-mask'>
<path fill-rule="evenodd"  fill="currentColor"
 d="M213.248,209.381 C208.045,214.781 201.248,217.481 192.848,217.481 C184.847,217.481 178.148,214.781 172.748,209.381 C167.348,203.981 164.648,197.484 164.648,189.881 C164.648,182.283 167.348,175.781 172.748,170.381 C178.148,164.981 184.847,162.281 192.848,162.281 C201.248,162.281 208.045,164.981 213.248,170.381 C218.447,175.781 221.048,182.283 221.048,189.881 C221.048,197.484 218.447,203.981 213.248,209.381 ZM118.598,129.131 C106.495,134.634 91.547,137.381 73.748,137.381 L51.548,137.381 L51.548,210.281 L0.848,210.281 L0.848,0.281 L32.648,0.281 L51.548,0.281 L73.748,0.281 C91.547,0.281 106.495,3.033 118.598,8.531 C130.697,14.034 139.847,21.881 146.048,32.081 C152.245,42.281 155.348,54.581 155.348,68.981 C155.348,82.983 152.245,95.133 146.048,105.431 C139.847,115.734 130.697,123.633 118.598,129.131 ZM97.748,48.881 C91.945,44.283 83.948,41.981 73.748,41.981 L51.548,41.981 L51.548,95.681 L73.748,95.681 C83.948,95.681 91.945,93.384 97.748,88.781 C103.547,84.183 106.448,77.583 106.448,68.981 C106.448,60.183 103.547,53.484 97.748,48.881 Z"/>
 </mask>
 </defs>
</svg>